<svg width="298" height="82" viewBox="0 0 298 82" fill="none" xmlns="http://www.w3.org/2000/svg">
<path d="M74.2161 64H61.9921C61.4374 64 61.1601 63.744 61.1601 63.232V60.48C61.1601 59.968 61.4374 59.712 61.9921 59.712H65.5121V36.8H61.9921C61.4374 36.8 61.1601 36.544 61.1601 36.032V33.28C61.1601 32.768 61.4374 32.512 61.9921 32.512H70.0561C70.5681 32.512 70.8241 32.768 70.8241 33.28V59.712H74.2161C74.7708 59.712 75.0481 59.968 75.0481 60.48V63.232C75.0481 63.744 74.7708 64 74.2161 64ZM70.5681 23.04C71.2934 23.7653 71.6561 24.6187 71.6561 25.6C71.6561 26.5813 71.2934 27.4133 70.5681 28.096C69.8854 28.7787 69.0534 29.12 68.0721 29.12C67.0908 29.12 66.2374 28.7787 65.5121 28.096C64.8294 27.4133 64.4881 26.5813 64.4881 25.6C64.4881 24.6187 64.8294 23.7653 65.5121 23.04C66.2374 22.3147 67.0908 21.952 68.0721 21.952C69.0534 21.952 69.8854 22.3147 70.5681 23.04ZM113.958 64H107.878C106.043 64 105.126 63.104 105.126 61.312V44.48C105.126 42.0053 104.529 40.0853 103.334 38.72C102.139 37.3547 100.39 36.672 98.0861 36.672C94.8008 36.672 92.2408 38.016 90.4061 40.704C90.1928 40.96 89.9154 41.4293 89.5741 42.112V59.712H92.9661C93.5208 59.712 93.7981 59.968 93.7981 60.48V63.232C93.7981 63.744 93.5208 64 92.9661 64H80.7421C80.1874 64 79.9101 63.744 79.9101 63.232V60.48C79.9101 59.968 80.1874 59.712 80.7421 59.712H84.2621V36.8H80.7421C80.1874 36.8 79.9101 36.544 79.9101 36.032V33.28C79.9101 32.768 80.1874 32.512 80.7421 32.512H88.2301C88.7848 32.512 89.0621 32.768 89.0621 33.28L88.9341 37.632H89.1261C91.3448 33.92 94.7794 32.064 99.4301 32.064C102.843 32.064 105.51 33.0667 107.43 35.072C109.35 37.0773 110.331 39.7867 110.374 43.2V59.712H113.958C114.513 59.712 114.79 59.968 114.79 60.48V63.232C114.79 63.744 114.513 64 113.958 64ZM138.036 60.736C138.207 60.9067 138.292 61.0987 138.292 61.312C138.292 61.4827 138.164 61.696 137.908 61.952C136.031 63.616 133.663 64.448 130.804 64.448C127.988 64.448 125.663 63.5307 123.828 61.696C122.036 59.8187 121.14 57.1093 121.14 53.568V36.8H117.556C116.959 36.8 116.66 36.5227 116.66 35.968V33.344C116.66 32.7893 116.959 32.512 117.556 32.512H121.14V26.048C121.14 25.4507 121.439 25.152 122.036 25.152H125.62C126.175 25.152 126.452 25.4507 126.452 26.048V32.512H134.58C135.177 32.512 135.476 32.7893 135.476 33.344V35.968C135.476 36.5227 135.177 36.8 134.58 36.8H126.452V53.44C126.452 55.5733 126.921 57.1947 127.86 58.304C128.841 59.3707 130.121 59.904 131.7 59.904C133.321 59.904 134.537 59.4987 135.348 58.688C135.775 58.304 136.159 58.3253 136.5 58.752L138.036 60.736ZM168.703 48.896H145.663C145.833 52.4373 146.943 55.168 148.991 57.088C151.081 59.008 153.428 59.968 156.031 59.968C158.633 59.968 160.852 59.4133 162.687 58.304C164.564 57.1947 165.823 56.1067 166.463 55.04C166.804 54.6133 167.188 54.5493 167.615 54.848L169.343 56.576C169.599 56.832 169.727 57.0667 169.727 57.28C169.727 57.4507 169.62 57.6853 169.407 57.984C169.236 58.2827 168.852 58.752 168.255 59.392C167.657 60.032 166.804 60.7573 165.695 61.568C164.628 62.3787 163.22 63.0613 161.471 63.616C159.764 64.1707 157.929 64.448 155.967 64.448C151.487 64.448 147.732 62.976 144.703 60.032C141.716 57.088 140.223 53.1413 140.223 48.192C140.223 43.2 141.716 39.2747 144.703 36.416C147.689 33.5147 151.337 32.064 155.647 32.064C159.999 32.064 163.412 33.472 165.887 36.288C168.361 39.0613 169.599 42.816 169.599 47.552C169.599 47.7227 169.599 47.8933 169.599 48.064C169.599 48.6187 169.3 48.896 168.703 48.896ZM164.287 44.992C164.159 42.3467 163.327 40.2347 161.791 38.656C160.255 37.0773 158.207 36.288 155.647 36.288C153.087 36.288 150.889 37.0133 149.055 38.464C147.22 39.9147 146.132 42.0907 145.791 44.992H164.287ZM208.708 64H202.628C200.793 64 199.876 63.104 199.876 61.312V44.48C199.876 42.0053 199.279 40.0853 198.084 38.72C196.889 37.3547 195.14 36.672 192.836 36.672C189.551 36.672 186.991 38.016 185.156 40.704C184.943 40.96 184.665 41.4293 184.324 42.112V59.712H187.716C188.271 59.712 188.548 59.968 188.548 60.48V63.232C188.548 63.744 188.271 64 187.716 64H175.492C174.937 64 174.66 63.744 174.66 63.232V60.48C174.66 59.968 174.937 59.712 175.492 59.712H179.012V36.8H175.492C174.937 36.8 174.66 36.544 174.66 36.032V33.28C174.66 32.768 174.937 32.512 175.492 32.512H182.98C183.535 32.512 183.812 32.768 183.812 33.28L183.684 37.632H183.876C186.095 33.92 189.529 32.064 194.18 32.064C197.593 32.064 200.26 33.0667 202.18 35.072C204.1 37.0773 205.081 39.7867 205.124 43.2V59.712H208.708C209.263 59.712 209.54 59.968 209.54 60.48V63.232C209.54 63.744 209.263 64 208.708 64ZM227.493 64.448C224.634 64.448 222.352 63.9147 220.645 62.848C218.938 61.7813 217.872 60.7787 217.445 59.84H217.317C217.402 61.9307 217.445 63.04 217.445 63.168C217.445 63.7227 217.146 64 216.549 64H214.373C213.818 64 213.541 63.7227 213.541 63.168V53.568C213.541 53.0133 213.818 52.736 214.373 52.736H216.869C217.466 52.736 217.765 53.0133 217.765 53.568V54.848C218.192 56.128 219.088 57.3013 220.453 58.368C222.074 59.648 224.101 60.288 226.533 60.288C231.312 60.288 233.701 58.624 233.701 55.296C233.701 54.144 233.04 53.2267 231.717 52.544C230.394 51.8187 228.773 51.2213 226.853 50.752C224.976 50.2827 223.098 49.7493 221.221 49.152C219.344 48.5547 217.744 47.5947 216.421 46.272C215.098 44.9067 214.437 43.2 214.437 41.152C214.437 38.3787 215.44 36.1813 217.445 34.56C219.45 32.896 222.01 32.064 225.125 32.064C229.349 32.064 232.378 33.3013 234.213 35.776H234.341C234.256 34.24 234.213 33.4507 234.213 33.408C234.213 32.8533 234.49 32.576 235.045 32.576H237.093C237.648 32.576 237.925 32.8533 237.925 33.408V42.304C237.925 42.8587 237.648 43.136 237.093 43.136H234.597C234 43.136 233.701 42.8587 233.701 42.304V41.408C233.701 40.256 233.018 39.1253 231.653 38.016C230.33 36.864 228.602 36.288 226.469 36.288C224.336 36.288 222.672 36.736 221.477 37.632C220.282 38.528 219.685 39.7013 219.685 41.152C219.685 42.56 220.346 43.6693 221.669 44.48C223.034 45.248 224.677 45.8667 226.597 46.336C228.517 46.7627 230.437 47.2533 232.357 47.808C234.277 48.3627 235.898 49.28 237.221 50.56C238.586 51.84 239.269 53.6107 239.269 55.872C239.269 58.1333 238.288 60.1387 236.325 61.888C234.405 63.5947 231.461 64.448 227.493 64.448ZM257.716 64H245.492C244.937 64 244.66 63.744 244.66 63.232V60.48C244.66 59.968 244.937 59.712 245.492 59.712H249.012V36.8H245.492C244.937 36.8 244.66 36.544 244.66 36.032V33.28C244.66 32.768 244.937 32.512 245.492 32.512H253.556C254.068 32.512 254.324 32.768 254.324 33.28V59.712H257.716C258.271 59.712 258.548 59.968 258.548 60.48V63.232C258.548 63.744 258.271 64 257.716 64ZM254.068 23.04C254.793 23.7653 255.156 24.6187 255.156 25.6C255.156 26.5813 254.793 27.4133 254.068 28.096C253.385 28.7787 252.553 29.12 251.572 29.12C250.591 29.12 249.737 28.7787 249.012 28.096C248.329 27.4133 247.988 26.5813 247.988 25.6C247.988 24.6187 248.329 23.7653 249.012 23.04C249.737 22.3147 250.591 21.952 251.572 21.952C252.553 21.952 253.385 22.3147 254.068 23.04ZM290.052 59.968C287.065 62.9547 283.247 64.448 278.596 64.448C273.945 64.448 270.127 62.976 267.14 60.032C264.153 57.0453 262.66 53.0987 262.66 48.192C262.66 43.2427 264.175 39.3173 267.204 36.416C270.233 33.5147 274.031 32.064 278.596 32.064C283.204 32.064 287.001 33.536 289.988 36.48C293.017 39.3813 294.532 43.2853 294.532 48.192C294.532 53.056 293.039 56.9813 290.052 59.968ZM268.036 48.192C268.036 51.6907 269.06 54.528 271.108 56.704C273.156 58.88 275.652 59.968 278.596 59.968C281.583 59.968 284.1 58.88 286.148 56.704C288.196 54.528 289.22 51.6907 289.22 48.192C289.22 44.6933 288.175 41.8773 286.084 39.744C284.036 37.6107 281.561 36.544 278.66 36.544C275.759 36.544 273.263 37.6107 271.172 39.744C269.081 41.8773 268.036 44.6933 268.036 48.192Z" fill="black"/>
<path d="M44.1838 25.7242C44.1838 24.0673 42.8406 22.7242 41.1838 22.7242L14.1838 22.7242C12.5269 22.7242 11.1838 24.0673 11.1838 25.7242C11.1838 27.381 12.5269 28.7242 14.1838 28.7242H38.1838V52.7242C38.1838 54.381 39.5269 55.7242 41.1838 55.7242C42.8406 55.7242 44.1838 54.381 44.1838 52.7242L44.1838 25.7242ZM5.12132 66.0293L43.3051 27.8455L39.0624 23.6029L0.87868 61.7866L5.12132 66.0293Z" fill="#583881"/>
</svg>
