<svg width="298" height="110" viewBox="0 0 298 110" fill="none" xmlns="http://www.w3.org/2000/svg">
<path d="M74.2161 64H61.9921C61.4374 64 61.1601 63.744 61.1601 63.232V60.48C61.1601 59.968 61.4374 59.712 61.9921 59.712H65.5121V36.8H61.9921C61.4374 36.8 61.1601 36.544 61.1601 36.032V33.28C61.1601 32.768 61.4374 32.512 61.9921 32.512H70.0561C70.5681 32.512 70.8241 32.768 70.8241 33.28V59.712H74.2161C74.7708 59.712 75.0481 59.968 75.0481 60.48V63.232C75.0481 63.744 74.7708 64 74.2161 64ZM70.5681 23.04C71.2934 23.7653 71.6561 24.6187 71.6561 25.6C71.6561 26.5813 71.2934 27.4133 70.5681 28.096C69.8854 28.7787 69.0534 29.12 68.0721 29.12C67.0908 29.12 66.2374 28.7787 65.5121 28.096C64.8294 27.4133 64.4881 26.5813 64.4881 25.6C64.4881 24.6187 64.8294 23.7653 65.5121 23.04C66.2374 22.3147 67.0908 21.952 68.0721 21.952C69.0534 21.952 69.8854 22.3147 70.5681 23.04ZM113.958 64H107.878C106.043 64 105.126 63.104 105.126 61.312V44.48C105.126 42.0053 104.529 40.0853 103.334 38.72C102.139 37.3547 100.39 36.672 98.0861 36.672C94.8008 36.672 92.2408 38.016 90.4061 40.704C90.1928 40.96 89.9154 41.4293 89.5741 42.112V59.712H92.9661C93.5208 59.712 93.7981 59.968 93.7981 60.48V63.232C93.7981 63.744 93.5208 64 92.9661 64H80.7421C80.1874 64 79.9101 63.744 79.9101 63.232V60.48C79.9101 59.968 80.1874 59.712 80.7421 59.712H84.2621V36.8H80.7421C80.1874 36.8 79.9101 36.544 79.9101 36.032V33.28C79.9101 32.768 80.1874 32.512 80.7421 32.512H88.2301C88.7848 32.512 89.0621 32.768 89.0621 33.28L88.9341 37.632H89.1261C91.3448 33.92 94.7794 32.064 99.4301 32.064C102.843 32.064 105.51 33.0667 107.43 35.072C109.35 37.0773 110.331 39.7867 110.374 43.2V59.712H113.958C114.513 59.712 114.79 59.968 114.79 60.48V63.232C114.79 63.744 114.513 64 113.958 64ZM138.036 60.736C138.207 60.9067 138.292 61.0987 138.292 61.312C138.292 61.4827 138.164 61.696 137.908 61.952C136.031 63.616 133.663 64.448 130.804 64.448C127.988 64.448 125.663 63.5307 123.828 61.696C122.036 59.8187 121.14 57.1093 121.14 53.568V36.8H117.556C116.959 36.8 116.66 36.5227 116.66 35.968V33.344C116.66 32.7893 116.959 32.512 117.556 32.512H121.14V26.048C121.14 25.4507 121.439 25.152 122.036 25.152H125.62C126.175 25.152 126.452 25.4507 126.452 26.048V32.512H134.58C135.177 32.512 135.476 32.7893 135.476 33.344V35.968C135.476 36.5227 135.177 36.8 134.58 36.8H126.452V53.44C126.452 55.5733 126.921 57.1947 127.86 58.304C128.841 59.3707 130.121 59.904 131.7 59.904C133.321 59.904 134.537 59.4987 135.348 58.688C135.775 58.304 136.159 58.3253 136.5 58.752L138.036 60.736ZM168.703 48.896H145.663C145.833 52.4373 146.943 55.168 148.991 57.088C151.081 59.008 153.428 59.968 156.031 59.968C158.633 59.968 160.852 59.4133 162.687 58.304C164.564 57.1947 165.823 56.1067 166.463 55.04C166.804 54.6133 167.188 54.5493 167.615 54.848L169.343 56.576C169.599 56.832 169.727 57.0667 169.727 57.28C169.727 57.4507 169.62 57.6853 169.407 57.984C169.236 58.2827 168.852 58.752 168.255 59.392C167.657 60.032 166.804 60.7573 165.695 61.568C164.628 62.3787 163.22 63.0613 161.471 63.616C159.764 64.1707 157.929 64.448 155.967 64.448C151.487 64.448 147.732 62.976 144.703 60.032C141.716 57.088 140.223 53.1413 140.223 48.192C140.223 43.2 141.716 39.2747 144.703 36.416C147.689 33.5147 151.337 32.064 155.647 32.064C159.999 32.064 163.412 33.472 165.887 36.288C168.361 39.0613 169.599 42.816 169.599 47.552C169.599 47.7227 169.599 47.8933 169.599 48.064C169.599 48.6187 169.3 48.896 168.703 48.896ZM164.287 44.992C164.159 42.3467 163.327 40.2347 161.791 38.656C160.255 37.0773 158.207 36.288 155.647 36.288C153.087 36.288 150.889 37.0133 149.055 38.464C147.22 39.9147 146.132 42.0907 145.791 44.992H164.287ZM208.708 64H202.628C200.793 64 199.876 63.104 199.876 61.312V44.48C199.876 42.0053 199.279 40.0853 198.084 38.72C196.889 37.3547 195.14 36.672 192.836 36.672C189.551 36.672 186.991 38.016 185.156 40.704C184.943 40.96 184.665 41.4293 184.324 42.112V59.712H187.716C188.271 59.712 188.548 59.968 188.548 60.48V63.232C188.548 63.744 188.271 64 187.716 64H175.492C174.937 64 174.66 63.744 174.66 63.232V60.48C174.66 59.968 174.937 59.712 175.492 59.712H179.012V36.8H175.492C174.937 36.8 174.66 36.544 174.66 36.032V33.28C174.66 32.768 174.937 32.512 175.492 32.512H182.98C183.535 32.512 183.812 32.768 183.812 33.28L183.684 37.632H183.876C186.095 33.92 189.529 32.064 194.18 32.064C197.593 32.064 200.26 33.0667 202.18 35.072C204.1 37.0773 205.081 39.7867 205.124 43.2V59.712H208.708C209.263 59.712 209.54 59.968 209.54 60.48V63.232C209.54 63.744 209.263 64 208.708 64ZM227.493 64.448C224.634 64.448 222.352 63.9147 220.645 62.848C218.938 61.7813 217.872 60.7787 217.445 59.84H217.317C217.402 61.9307 217.445 63.04 217.445 63.168C217.445 63.7227 217.146 64 216.549 64H214.373C213.818 64 213.541 63.7227 213.541 63.168V53.568C213.541 53.0133 213.818 52.736 214.373 52.736H216.869C217.466 52.736 217.765 53.0133 217.765 53.568V54.848C218.192 56.128 219.088 57.3013 220.453 58.368C222.074 59.648 224.101 60.288 226.533 60.288C231.312 60.288 233.701 58.624 233.701 55.296C233.701 54.144 233.04 53.2267 231.717 52.544C230.394 51.8187 228.773 51.2213 226.853 50.752C224.976 50.2827 223.098 49.7493 221.221 49.152C219.344 48.5547 217.744 47.5947 216.421 46.272C215.098 44.9067 214.437 43.2 214.437 41.152C214.437 38.3787 215.44 36.1813 217.445 34.56C219.45 32.896 222.01 32.064 225.125 32.064C229.349 32.064 232.378 33.3013 234.213 35.776H234.341C234.256 34.24 234.213 33.4507 234.213 33.408C234.213 32.8533 234.49 32.576 235.045 32.576H237.093C237.648 32.576 237.925 32.8533 237.925 33.408V42.304C237.925 42.8587 237.648 43.136 237.093 43.136H234.597C234 43.136 233.701 42.8587 233.701 42.304V41.408C233.701 40.256 233.018 39.1253 231.653 38.016C230.33 36.864 228.602 36.288 226.469 36.288C224.336 36.288 222.672 36.736 221.477 37.632C220.282 38.528 219.685 39.7013 219.685 41.152C219.685 42.56 220.346 43.6693 221.669 44.48C223.034 45.248 224.677 45.8667 226.597 46.336C228.517 46.7627 230.437 47.2533 232.357 47.808C234.277 48.3627 235.898 49.28 237.221 50.56C238.586 51.84 239.269 53.6107 239.269 55.872C239.269 58.1333 238.288 60.1387 236.325 61.888C234.405 63.5947 231.461 64.448 227.493 64.448ZM257.716 64H245.492C244.937 64 244.66 63.744 244.66 63.232V60.48C244.66 59.968 244.937 59.712 245.492 59.712H249.012V36.8H245.492C244.937 36.8 244.66 36.544 244.66 36.032V33.28C244.66 32.768 244.937 32.512 245.492 32.512H253.556C254.068 32.512 254.324 32.768 254.324 33.28V59.712H257.716C258.271 59.712 258.548 59.968 258.548 60.48V63.232C258.548 63.744 258.271 64 257.716 64ZM254.068 23.04C254.793 23.7653 255.156 24.6187 255.156 25.6C255.156 26.5813 254.793 27.4133 254.068 28.096C253.385 28.7787 252.553 29.12 251.572 29.12C250.591 29.12 249.737 28.7787 249.012 28.096C248.329 27.4133 247.988 26.5813 247.988 25.6C247.988 24.6187 248.329 23.7653 249.012 23.04C249.737 22.3147 250.591 21.952 251.572 21.952C252.553 21.952 253.385 22.3147 254.068 23.04ZM290.052 59.968C287.065 62.9547 283.247 64.448 278.596 64.448C273.945 64.448 270.127 62.976 267.14 60.032C264.153 57.0453 262.66 53.0987 262.66 48.192C262.66 43.2427 264.175 39.3173 267.204 36.416C270.233 33.5147 274.031 32.064 278.596 32.064C283.204 32.064 287.001 33.536 289.988 36.48C293.017 39.3813 294.532 43.2853 294.532 48.192C294.532 53.056 293.039 56.9813 290.052 59.968ZM268.036 48.192C268.036 51.6907 269.06 54.528 271.108 56.704C273.156 58.88 275.652 59.968 278.596 59.968C281.583 59.968 284.1 58.88 286.148 56.704C288.196 54.528 289.22 51.6907 289.22 48.192C289.22 44.6933 288.175 41.8773 286.084 39.744C284.036 37.6107 281.561 36.544 278.66 36.544C275.759 36.544 273.263 37.6107 271.172 39.744C269.081 41.8773 268.036 44.6933 268.036 48.192Z" fill="black"/>
<path d="M44.1838 25.7242C44.1838 24.0673 42.8406 22.7242 41.1838 22.7242L14.1838 22.7242C12.5269 22.7242 11.1838 24.0673 11.1838 25.7242C11.1838 27.381 12.5269 28.7242 14.1838 28.7242H38.1838V52.7242C38.1838 54.381 39.5269 55.7242 41.1838 55.7242C42.8406 55.7242 44.1838 54.381 44.1838 52.7242L44.1838 25.7242ZM5.12132 66.0293L43.3051 27.8455L39.0624 23.6029L0.87868 61.7866L5.12132 66.0293Z" fill="#583881"/>
<path d="M61.8867 86.9375L67.4648 100.859L73.043 86.9375H75.9609V104H73.7109V97.3555L73.9219 90.1836L68.3203 104H66.5977L61.0078 90.2188L61.2305 97.3555V104H58.9805V86.9375H61.8867ZM91.1419 104C91.0169 103.75 90.9153 103.305 90.8372 102.664C89.8294 103.711 88.6262 104.234 87.2278 104.234C85.9778 104.234 84.9505 103.883 84.1458 103.18C83.3489 102.469 82.9505 101.57 82.9505 100.484C82.9505 99.1641 83.4505 98.1406 84.4505 97.4141C85.4583 96.6797 86.8723 96.3125 88.6927 96.3125H90.802V95.3164C90.802 94.5586 90.5755 93.957 90.1223 93.5117C89.6692 93.0586 89.0012 92.832 88.1184 92.832C87.345 92.832 86.6966 93.0273 86.1731 93.418C85.6497 93.8086 85.388 94.2812 85.388 94.8359H83.2083C83.2083 94.2031 83.4309 93.5938 83.8762 93.0078C84.3294 92.4141 84.9387 91.9453 85.7044 91.6016C86.4778 91.2578 87.3255 91.0859 88.2473 91.0859C89.7083 91.0859 90.8528 91.4531 91.6809 92.1875C92.5091 92.9141 92.9387 93.918 92.97 95.1992V101.035C92.97 102.199 93.1184 103.125 93.4153 103.812V104H91.1419ZM87.5442 102.348C88.2239 102.348 88.8684 102.172 89.4778 101.82C90.0872 101.469 90.5286 101.012 90.802 100.449V97.8477H89.1028C86.4466 97.8477 85.1184 98.625 85.1184 100.18C85.1184 100.859 85.345 101.391 85.7981 101.773C86.2512 102.156 86.8333 102.348 87.5442 102.348ZM107.471 100.637C107.471 100.051 107.249 99.5977 106.803 99.2773C106.366 98.9492 105.596 98.668 104.495 98.4336C103.401 98.1992 102.53 97.918 101.881 97.5898C101.241 97.2617 100.764 96.8711 100.452 96.418C100.147 95.9648 99.9947 95.4258 99.9947 94.8008C99.9947 93.7617 100.432 92.8828 101.307 92.1641C102.19 91.4453 103.315 91.0859 104.682 91.0859C106.12 91.0859 107.284 91.457 108.174 92.1992C109.073 92.9414 109.522 93.8906 109.522 95.0469H107.342C107.342 94.4531 107.088 93.9414 106.581 93.5117C106.081 93.082 105.448 92.8672 104.682 92.8672C103.893 92.8672 103.276 93.0391 102.831 93.3828C102.385 93.7266 102.163 94.1758 102.163 94.7305C102.163 95.2539 102.37 95.6484 102.784 95.9141C103.198 96.1797 103.944 96.4336 105.022 96.6758C106.108 96.918 106.987 97.207 107.659 97.543C108.331 97.8789 108.827 98.2852 109.147 98.7617C109.475 99.2305 109.639 99.8047 109.639 100.484C109.639 101.617 109.186 102.527 108.28 103.215C107.374 103.895 106.198 104.234 104.752 104.234C103.737 104.234 102.838 104.055 102.057 103.695C101.276 103.336 100.663 102.836 100.217 102.195C99.7798 101.547 99.5611 100.848 99.5611 100.098H101.729C101.768 100.824 102.057 101.402 102.596 101.832C103.143 102.254 103.862 102.465 104.752 102.465C105.573 102.465 106.229 102.301 106.721 101.973C107.221 101.637 107.471 101.191 107.471 100.637ZM119.125 88.25V91.3203H121.492V92.9961H119.125V100.859C119.125 101.367 119.23 101.75 119.441 102.008C119.652 102.258 120.012 102.383 120.519 102.383C120.769 102.383 121.113 102.336 121.551 102.242V104C120.98 104.156 120.426 104.234 119.887 104.234C118.918 104.234 118.187 103.941 117.695 103.355C117.203 102.77 116.957 101.938 116.957 100.859V92.9961H114.648V91.3203H116.957V88.25H119.125ZM133.017 104.234C131.298 104.234 129.9 103.672 128.821 102.547C127.743 101.414 127.204 99.9023 127.204 98.0117V97.6133C127.204 96.3555 127.442 95.2344 127.919 94.25C128.403 93.2578 129.075 92.4844 129.935 91.9297C130.802 91.3672 131.739 91.0859 132.747 91.0859C134.396 91.0859 135.677 91.6289 136.591 92.7148C137.505 93.8008 137.962 95.3555 137.962 97.3789V98.2812H129.372C129.403 99.5312 129.767 100.543 130.462 101.316C131.165 102.082 132.056 102.465 133.134 102.465C133.9 102.465 134.548 102.309 135.079 101.996C135.61 101.684 136.075 101.27 136.474 100.754L137.798 101.785C136.735 103.418 135.142 104.234 133.017 104.234ZM132.747 92.8672C131.872 92.8672 131.138 93.1875 130.544 93.8281C129.95 94.4609 129.583 95.3516 129.442 96.5H135.794V96.3359C135.732 95.2344 135.435 94.3828 134.903 93.7812C134.372 93.1719 133.653 92.8672 132.747 92.8672ZM150.33 93.2656C150.002 93.2109 149.647 93.1836 149.264 93.1836C147.842 93.1836 146.877 93.7891 146.37 95V104H144.202V91.3203H146.311L146.346 92.7852C147.057 91.6523 148.065 91.0859 149.37 91.0859C149.791 91.0859 150.112 91.1406 150.33 91.25V93.2656ZM169.876 100.824L172.829 91.3203H175.149L170.052 105.957C169.263 108.066 168.009 109.121 166.29 109.121L165.88 109.086L165.071 108.934V107.176L165.657 107.223C166.392 107.223 166.962 107.074 167.368 106.777C167.782 106.48 168.122 105.938 168.388 105.148L168.868 103.859L164.345 91.3203H166.712L169.876 100.824ZM180.053 97.543C180.053 96.3008 180.295 95.1836 180.78 94.1914C181.272 93.1992 181.951 92.4336 182.819 91.8945C183.694 91.3555 184.69 91.0859 185.807 91.0859C187.533 91.0859 188.928 91.6836 189.99 92.8789C191.061 94.0742 191.596 95.6641 191.596 97.6484V97.8008C191.596 99.0352 191.358 100.145 190.881 101.129C190.412 102.105 189.737 102.867 188.854 103.414C187.979 103.961 186.971 104.234 185.83 104.234C184.112 104.234 182.717 103.637 181.647 102.441C180.584 101.246 180.053 99.6641 180.053 97.6953V97.543ZM182.233 97.8008C182.233 99.207 182.557 100.336 183.205 101.188C183.862 102.039 184.737 102.465 185.83 102.465C186.932 102.465 187.807 102.035 188.455 101.176C189.104 100.309 189.428 99.0977 189.428 97.543C189.428 96.1523 189.096 95.0273 188.432 94.168C187.776 93.3008 186.901 92.8672 185.807 92.8672C184.737 92.8672 183.873 93.293 183.217 94.1445C182.561 94.9961 182.233 96.2148 182.233 97.8008ZM205.863 102.746C205.019 103.738 203.781 104.234 202.148 104.234C200.796 104.234 199.765 103.844 199.054 103.062C198.351 102.273 197.996 101.109 197.988 99.5703V91.3203H200.156V99.5117C200.156 101.434 200.937 102.395 202.5 102.395C204.156 102.395 205.257 101.777 205.804 100.543V91.3203H207.972V104H205.91L205.863 102.746ZM221.126 93.2656C220.798 93.2109 220.442 93.1836 220.059 93.1836C218.637 93.1836 217.673 93.7891 217.165 95V104H214.997V91.3203H217.106L217.141 92.7852C217.852 91.6523 218.86 91.0859 220.165 91.0859C220.587 91.0859 220.907 91.1406 221.126 91.25V93.2656ZM239.464 88.25V91.3203H241.831V92.9961H239.464V100.859C239.464 101.367 239.57 101.75 239.781 102.008C239.992 102.258 240.351 102.383 240.859 102.383C241.109 102.383 241.452 102.336 241.89 102.242V104C241.32 104.156 240.765 104.234 240.226 104.234C239.257 104.234 238.527 103.941 238.035 103.355C237.542 102.77 237.296 101.938 237.296 100.859V92.9961H234.988V91.3203H237.296V88.25H239.464ZM250.45 104H248.282V91.3203H250.45V104ZM248.106 87.957C248.106 87.6055 248.212 87.3086 248.423 87.0664C248.641 86.8242 248.962 86.7031 249.383 86.7031C249.805 86.7031 250.126 86.8242 250.344 87.0664C250.563 87.3086 250.673 87.6055 250.673 87.957C250.673 88.3086 250.563 88.6016 250.344 88.8359C250.126 89.0703 249.805 89.1875 249.383 89.1875C248.962 89.1875 248.641 89.0703 248.423 88.8359C248.212 88.6016 248.106 88.3086 248.106 87.957ZM259.689 91.3203L259.748 92.7266C260.678 91.6328 261.932 91.0859 263.51 91.0859C265.283 91.0859 266.49 91.7656 267.131 93.125C267.553 92.5156 268.1 92.0234 268.771 91.6484C269.451 91.2734 270.252 91.0859 271.174 91.0859C273.955 91.0859 275.369 92.5586 275.416 95.5039V104H273.248V95.6328C273.248 94.7266 273.041 94.0508 272.627 93.6055C272.213 93.1523 271.518 92.9258 270.541 92.9258C269.736 92.9258 269.068 93.168 268.537 93.6523C268.006 94.1289 267.697 94.7734 267.611 95.5859V104H265.432V95.6914C265.432 93.8477 264.529 92.9258 262.725 92.9258C261.303 92.9258 260.33 93.5312 259.807 94.7422V104H257.639V91.3203H259.689ZM287.679 104.234C285.96 104.234 284.562 103.672 283.484 102.547C282.405 101.414 281.866 99.9023 281.866 98.0117V97.6133C281.866 96.3555 282.105 95.2344 282.581 94.25C283.066 93.2578 283.738 92.4844 284.597 91.9297C285.464 91.3672 286.402 91.0859 287.409 91.0859C289.058 91.0859 290.339 91.6289 291.253 92.7148C292.167 93.8008 292.624 95.3555 292.624 97.3789V98.2812H284.034C284.066 99.5312 284.429 100.543 285.124 101.316C285.827 102.082 286.718 102.465 287.796 102.465C288.562 102.465 289.21 102.309 289.741 101.996C290.273 101.684 290.738 101.27 291.136 100.754L292.46 101.785C291.398 103.418 289.804 104.234 287.679 104.234ZM287.409 92.8672C286.534 92.8672 285.8 93.1875 285.206 93.8281C284.613 94.4609 284.245 95.3516 284.105 96.5H290.456V96.3359C290.394 95.2344 290.097 94.3828 289.566 93.7812C289.034 93.1719 288.316 92.8672 287.409 92.8672Z" fill="#A2A2A2"/>
</svg>
